<?xml version="1.0" encoding="UTF-8" standalone="no"?>
<svg
   xmlns:dc="http://purl.org/dc/elements/1.1/"
   xmlns:cc="http://creativecommons.org/ns#"
   xmlns:rdf="http://www.w3.org/1999/02/22-rdf-syntax-ns#"
   xmlns:svg="http://www.w3.org/2000/svg"
   xmlns="http://www.w3.org/2000/svg"
   id="svg6"
   version="1.1"
   width="180"
   height="180"
   viewBox="0 0 47.625 47.625">
  <metadata
     id="metadata12">
    <rdf:RDF>
      <cc:Work
         rdf:about="">
        <dc:format>image/svg+xml</dc:format>
        <dc:type
           rdf:resource="http://purl.org/dc/dcmitype/StillImage" />
        <dc:title></dc:title>
      </cc:Work>
    </rdf:RDF>
  </metadata>
  <defs
     id="defs10" />
  <path
     id="circle2"
     transform="scale(0.26458333)"
     fill="#ffffff"
     d="M 90.001953 0 A 90.001889 90.001889 0 0 0 0 90.001953 A 90.001889 90.001889 0 0 0 90.001953 180.00391 A 90.001889 90.001889 0 0 0 180.00391 90.001953 A 90.001889 90.001889 0 0 0 90.001953 0 z M 89.205078 23.115234 C 96.86996 22.994289 102.93473 24.718147 106.92969 28.195312 C 108.33945 29.423659 108.97146 29.76467 110.97461 30.376953 C 117.55855 32.357426 122.59361 37.496841 124.86133 44.451172 C 125.9196 47.701566 126.2397 49.805849 126.39844 54.617188 C 126.62521 61.186006 126.096 65.993993 124.35742 73.212891 L 123.56445 76.539062 L 124.34961 78.087891 C 125.54772 80.446316 125.79691 81.815938 125.62305 85.005859 A 20.976378 20.976378 0 0 1 123.55664 93.195312 C 122.98971 94.442557 122.2823 95.380111 120.85742 96.755859 C 119.14908 98.399954 118.84749 98.833788 118.31836 100.45898 C 116.9086 104.76765 114.18611 109.64042 111.17383 113.24609 L 109.73828 114.95898 L 109.81445 120.88086 C 109.87493 126.27425 109.93495 126.90607 110.44141 127.94922 C 111.71889 130.57977 115.71351 132.89931 124.64453 136.1875 L 133.3457 139.40039 C 137.64303 140.98779 143.67797 143.84091 146.24805 145.50391 C 147.27986 146.1691 148.34739 146.71667 148.63086 146.71289 A 80.995276 80.995276 0 0 1 90.255859 171.69336 A 80.995276 80.995276 0 0 1 31.824219 146.75977 L 33.53125 145.68555 L 54.632812 136.62305 C 62.762576 133.59942 65.52555 132.20489 68.035156 129.86914 C 70.151692 127.90379 70.155765 127.89084 70.257812 121.02344 L 70.351562 114.96094 L 68.710938 112.98438 A 35.867717 35.867717 0 0 1 61.996094 101.03125 C 61.164598 98.642589 60.892296 98.143787 60.068359 97.539062 C 57.082533 95.346937 55.117129 91.272493 54.474609 85.943359 C 54.085318 82.692966 54.382654 80.605175 55.542969 78.382812 C 56.510528 76.523285 56.526809 75.775249 55.695312 71.693359 C 54.580352 66.235722 54.357675 63.843747 54.365234 57.494141 C 54.365234 50.611621 54.686088 48.245103 56.216797 43.671875 A 29.555906 29.555906 0 0 1 60.787109 35.013672 C 65.443487 28.735877 73.477095 24.684819 83.628906 23.498047 C 85.556465 23.271275 87.416728 23.145597 89.185547 23.119141 L 89.205078 23.115234 z "
     />
</svg>
